{
    "asset" : {
        "generator" : "Khronos glTF Blender I/O v3.3.36",
        "version" : "2.0"
    },
    "scene" : 0,
    "scenes" : [
        {
            "name" : "Scene",
            "nodes" : [
                4
            ]
        }
    ],
    "nodes" : [
        {
            "mesh" : 0,
            "name" : "NurbsPath.001__0"
        },
        {
            "children" : [
                0
            ],
            "name" : "NurbsPath.001",
            "rotation" : [
                -0.7071068286895752,
                0,
                0,
                0.7071067094802856
            ],
            "scale" : [
                49.349674224853516,
                49.34966278076172,
                49.34966278076172
            ],
            "translation" : [
                0,
                -1.1920928955078125e-05,
                0
            ]
        },
        {
            "children" : [
                1
            ],
            "name" : "RootNode"
        },
        {
            "children" : [
                2
            ],
            "name" : "730e760e6596411e9bee90087dc480a3.fbx",
            "rotation" : [
                0.7071068286895752,
                0,
                0,
                0.7071067094802856
            ]
        },
        {
            "children" : [
                3
            ],
            "name" : "Sketchfab_model",
            "rotation" : [
                -0.7071068286895752,
                0,
                0,
                0.7071067094802856
            ]
        }
    ],
    "materials" : [
        {
            "doubleSided" : true,
            "name" : "Scene_-_Root",
            "pbrMetallicRoughness" : {
                "metallicFactor" : 0,
                "roughnessFactor" : 0.6000000238418579
            }
        }
    ],
    "meshes" : [
        {
            "name" : "NurbsPath.001__0",
            "primitives" : [
                {
                    "attributes" : {
                        "POSITION" : 0,
                        "NORMAL" : 1,
                        "TEXCOORD_0" : 2
                    },
                    "indices" : 3,
                    "material" : 0
                }
            ]
        }
    ],
    "accessors" : [
        {
            "bufferView" : 0,
            "componentType" : 5126,
            "count" : 15001,
            "max" : [
                0.06884720176458359,
                0.0009403118165209889,
                0.04517613351345062
            ],
            "min" : [
                -0.06867287307977676,
                -0.0010988550493493676,
                0.00014980463311076164
            ],
            "type" : "VEC3"
        },
        {
            "bufferView" : 1,
            "componentType" : 5126,
            "count" : 15001,
            "type" : "VEC3"
        },
        {
            "bufferView" : 2,
            "componentType" : 5126,
            "count" : 15001,
            "type" : "VEC2"
        },
        {
            "bufferView" : 3,
            "componentType" : 5123,
            "count" : 42576,
            "type" : "SCALAR"
        }
    ],
    "bufferViews" : [
        {
            "buffer" : 0,
            "byteLength" : 180012,
            "byteOffset" : 0,
            "target" : 34962
        },
        {
            "buffer" : 0,
            "byteLength" : 180012,
            "byteOffset" : 180012,
            "target" : 34962
        },
        {
            "buffer" : 0,
            "byteLength" : 120008,
            "byteOffset" : 360024,
            "target" : 34962
        },
        {
            "buffer" : 0,
            "byteLength" : 85152,
            "byteOffset" : 480032,
            "target" : 34963
        }
    ],
    "buffers" : [
        {
            "byteLength" : 565184,
            "uri" : "data:application/octet-stream;base64,"
        }
    ]
}
