{
  "accessors": [
    {
      "bufferView": 2,
      "componentType": 5126,
      "count": 3652,
      "max": [
        537.812255859375,
        1093.63916015625,
        583.977294921875
      ],
      "min": [
        -537.8121337890625,
        1.0013580322265625e-05,
        -1475.272216796875
      ],
      "type": "VEC3"
    },
    {
      "bufferView": 2,
      "byteOffset": 43824,
      "componentType": 5126,
      "count": 3652,
      "max": [
        0.9997047185897827,
        0.9998500943183899,
        0.9999895691871643
      ],
      "min": [
        -0.9997047185897827,
        -1.0,
        -0.980033278465271
      ],
      "type": "VEC3"
    },
    {
      "bufferView": 1,
      "componentType": 5126,
      "count": 3652,
      "max": [
        0.9918521046638489,
        0.8280553817749023
      ],
      "min": [
        0.005992531776428223,
        0.1473304033279419
      ],
      "type": "VEC2"
    },
    {
      "bufferView": 1,
      "byteOffset": 29216,
      "componentType": 5126,
      "count": 3652,
      "max": [
        0.9918521046638489,
        0.8280553817749023
      ],
      "min": [
        0.005992531776428223,
        0.1473304033279419
      ],
      "type": "VEC2"
    },
    {
      "bufferView": 0,
      "componentType": 5125,
      "count": 19632,
      "type": "SCALAR"
    }
  ],
  "asset": {
    "extras": {
      "author": "LittleWhiteElk (https://sketchfab.com/LittleWhiteElk)",
      "license": "CC-BY-4.0 (http://creativecommons.org/licenses/by/4.0/)",
      "source": "https://sketchfab.com/3d-models/cursed-rat-68b91d6bdebe4558807dfb052d9f41c9",
      "title": "Cursed Rat"
    },
    "generator": "Sketchfab-12.65.0",
    "version": "2.0"
  },
  "bufferViews": [
    {
      "buffer": 0,
      "byteLength": 78528,
      "name": "floatBufferViews",
      "target": 34963
    },
    {
      "buffer": 0,
      "byteLength": 58432,
      "byteOffset": 78528,
      "byteStride": 8,
      "name": "floatBufferViews",
      "target": 34962
    },
    {
      "buffer": 0,
      "byteLength": 87648,
      "byteOffset": 136960,
      "byteStride": 12,
      "name": "floatBufferViews",
      "target": 34962
    }
  ],
  "buffers": [
    {
      "byteLength": 224608,
      "uri": "scene.bin"
    }
  ],
  "images": [
    {
      "uri": "textures/RattoMAT_baseColor.png"
    },
    {
      "uri": "textures/RattoMAT_metallicRoughness.png"
    }
  ],
  "materials": [
    {
      "doubleSided": true,
      "name": "RattoMAT",
      "pbrMetallicRoughness": {
        "baseColorTexture": {
          "index": 0
        },
        "metallicFactor": 0.0,
        "metallicRoughnessTexture": {
          "index": 1
        }
      }
    }
  ],
  "meshes": [
    {
      "name": "Ret_RattoMAT_0",
      "primitives": [
        {
          "attributes": {
            "NORMAL": 1,
            "POSITION": 0,
            "TEXCOORD_0": 2,
            "TEXCOORD_1": 3
          },
          "indices": 4,
          "material": 0,
          "mode": 4
        }
      ]
    }
  ],
  "nodes": [
    {
      "children": [
        1
      ],
      "matrix": [
        1.0,
        0.0,
        0.0,
        0.0,
        0.0,
        2.220446049250313e-16,
        -1.0,
        0.0,
        0.0,
        1.0,
        2.220446049250313e-16,
        0.0,
        0.0,
        0.0,
        0.0,
        1.0
      ],
      "name": "Sketchfab_model"
    },
    {
      "children": [
        2
      ],
      "matrix": [
        1.0,
        0.0,
        0.0,
        0.0,
        0.0,
        0.0,
        1.0,
        0.0,
        0.0,
        -1.0,
        0.0,
        0.0,
        0.0,
        0.0,
        0.0,
        1.0
      ],
      "name": "7e304222e04a41da97d69214202d6a66.fbx"
    },
    {
      "children": [
        3
      ],
      "name": "RootNode"
    },
    {
      "children": [
        4
      ],
      "name": "Ret"
    },
    {
      "mesh": 0,
      "name": "Ret_RattoMAT_0"
    }
  ],
  "samplers": [
    {
      "magFilter": 9729,
      "minFilter": 9987,
      "wrapS": 10497,
      "wrapT": 10497
    }
  ],
  "scene": 0,
  "scenes": [
    {
      "name": "Sketchfab_Scene",
      "nodes": [
        0
      ]
    }
  ],
  "textures": [
    {
      "sampler": 0,
      "source": 0
    },
    {
      "sampler": 0,
      "source": 1
    }
  ]
}
